<mxfile host="app.diagrams.net" agent="Mozilla/5.0 (Windows NT 10.0; Win64; x64) AppleWebKit/537.36 (KHTML, like Gecko) Chrome/130.0.0.0 Safari/537.36" version="24.7.16">
  <diagram name="Страница — 1" id="hnjLQmWmMjf939OonIXq">
    <mxGraphModel dx="1050" dy="557" grid="1" gridSize="10" guides="1" tooltips="1" connect="1" arrows="1" fold="1" page="1" pageScale="1" pageWidth="827" pageHeight="1169" math="0" shadow="0">
      <root>
        <mxCell id="0" />
        <mxCell id="1" parent="0" />
        <mxCell id="9gUC9kNNmBnQxP_n4Uwb-2" value="Minikube Cluster" style="swimlane;" vertex="1" parent="1">
          <mxGeometry x="200" y="120" width="450" height="240" as="geometry" />
        </mxCell>
        <mxCell id="9gUC9kNNmBnQxP_n4Uwb-5" value="Port: 8200" style="edgeStyle=orthogonalEdgeStyle;rounded=0;orthogonalLoop=1;jettySize=auto;html=1;entryX=0;entryY=0.5;entryDx=0;entryDy=0;exitX=1;exitY=0.5;exitDx=0;exitDy=0;" edge="1" parent="9gUC9kNNmBnQxP_n4Uwb-2" source="9gUC9kNNmBnQxP_n4Uwb-9" target="9gUC9kNNmBnQxP_n4Uwb-8">
          <mxGeometry relative="1" as="geometry">
            <mxPoint x="350" y="260" as="sourcePoint" />
          </mxGeometry>
        </mxCell>
        <mxCell id="9gUC9kNNmBnQxP_n4Uwb-8" value="&lt;div style=&quot;&quot;&gt;&lt;span style=&quot;font-weight: 700; text-wrap-mode: nowrap;&quot;&gt;Pod: vault&lt;/span&gt;&lt;/div&gt;&lt;div style=&quot;text-align: left;&quot;&gt;&amp;nbsp;name: vault&lt;/div&gt;&lt;div style=&quot;text-align: left;&quot;&gt;&amp;nbsp;image:&amp;nbsp; &amp;nbsp; &amp;nbsp;hashicorp/vault:latest&lt;/div&gt;&lt;div style=&quot;text-align: left;&quot;&gt;&amp;nbsp;ports:&lt;/div&gt;&lt;div style=&quot;text-align: left;&quot;&gt;&amp;nbsp;containerPort: 8200&lt;/div&gt;&lt;div style=&quot;text-align: left;&quot;&gt;&amp;nbsp;name: http&lt;/div&gt;" style="rounded=1;whiteSpace=wrap;html=1;perimeterSpacing=1;" vertex="1" parent="9gUC9kNNmBnQxP_n4Uwb-2">
          <mxGeometry x="280" y="60" width="150" height="140" as="geometry" />
        </mxCell>
        <mxCell id="9gUC9kNNmBnQxP_n4Uwb-9" value="&lt;br&gt;&lt;span style=&quot;color: rgb(0, 0, 0); font-family: Helvetica; font-size: 12px; font-style: normal; font-variant-ligatures: normal; font-variant-caps: normal; font-weight: 700; letter-spacing: normal; orphans: 2; text-align: center; text-indent: 0px; text-transform: none; widows: 2; word-spacing: 0px; -webkit-text-stroke-width: 0px; white-space: nowrap; background-color: rgb(251, 251, 251); text-decoration-thickness: initial; text-decoration-style: initial; text-decoration-color: initial; display: inline !important; float: none;&quot;&gt;Service: NodePort&lt;/span&gt;&lt;br&gt;&amp;nbsp;(port 8200)" style="rounded=1;whiteSpace=wrap;html=1;" vertex="1" parent="9gUC9kNNmBnQxP_n4Uwb-2">
          <mxGeometry x="30" y="100" width="120" height="60" as="geometry" />
        </mxCell>
        <mxCell id="9gUC9kNNmBnQxP_n4Uwb-11" value="localhost:8200 -&gt; 8200" style="edgeStyle=orthogonalEdgeStyle;rounded=0;orthogonalLoop=1;jettySize=auto;html=1;entryX=0.5;entryY=1;entryDx=0;entryDy=0;" edge="1" parent="1" source="9gUC9kNNmBnQxP_n4Uwb-10" target="9gUC9kNNmBnQxP_n4Uwb-9">
          <mxGeometry x="-0.5385" relative="1" as="geometry">
            <mxPoint as="offset" />
          </mxGeometry>
        </mxCell>
        <mxCell id="9gUC9kNNmBnQxP_n4Uwb-10" value="Local Machine" style="rounded=0;whiteSpace=wrap;html=1;" vertex="1" parent="1">
          <mxGeometry x="230" y="410" width="120" height="60" as="geometry" />
        </mxCell>
      </root>
    </mxGraphModel>
  </diagram>
</mxfile>
